<mxfile host="app.diagrams.net" modified="2024-04-01T17:08:33.696Z" agent="Mozilla/5.0 (Windows NT 10.0; Win64; x64; rv:123.0) Gecko/20100101 Firefox/123.0" version="24.2.1" etag="nL-7i7iXhwr7QkRX5zXz" type="github">
  <diagram name="Page-1" id="vDo7KrHqP6fmfLN8yKtp">
    <mxGraphModel>
      <root>
        <mxCell id="0" />
        <mxCell id="1" parent="0" />
      </root>
    </mxGraphModel>
  </diagram>
</mxfile>
